<svg xmlns="http://www.w3.org/2000/svg" xmlns:xlink="http://www.w3.org/1999/xlink" width="900" height="177.74" viewBox="0 0 900 177.74">
  <defs>
    <linearGradient id="linear-gradient" x1="49.76" y1="136.87" x2="136.88" y2="49.75" gradientUnits="userSpaceOnUse">
      <stop offset="0" stop-color="#f15a24"/>
      <stop offset="1" stop-color="#fbb03b"/>
    </linearGradient>
  </defs>
  <g id="Layer_2" data-name="Layer 2">
    <g id="Layer_1-2" data-name="Layer 1">
      <g>
        <path d="M179,153.53l-63-63a61.59,61.59,0,1,0-22.63,23.84l62.36,62.35a3.3,3.3,0,0,0,4.7,0L179,158.23A3.34,3.34,0,0,0,179,153.53ZM103.73,61.2H92.45a1,1,0,0,0-1,1V90.09a1,1,0,0,1-1,1h-19a1,1,0,0,1-1-1v-16a1,1,0,0,0-1-1h-16a1,1,0,0,0-1,1v16a1,1,0,0,1-1,1h-19a1,1,0,0,1-1-1V62.17a1,1,0,0,0-1-1H19.5a1,1,0,0,1-.63-1.73L61,24.37a1,1,0,0,1,1.25,0L76.54,36.3v-4a1,1,0,0,1,1-1h13a1,1,0,0,1,1,1v16a1,1,0,0,0,.35.75l12.51,10.43A1,1,0,0,1,103.73,61.2Z" style="fill: url(#linear-gradient)"/>
        <g>
          <path d="M197.19,43.31C205,43.31,219,46.5,219,56.89V64H205.81V60.67c0-3.3-5-4.72-8.62-4.72-10.4,0-17.84,7.91-17.84,18.78,0,12.28,9.1,18.54,18.78,18.54,10.28,0,17.84-8.15,17.84-8.15l6.26,10.4a34.46,34.46,0,0,1-25.4,10.86c-19.84,0-32.6-14-32.6-31.53C164.23,57.84,176.52,43.31,197.19,43.31Z" style="fill: #f7bb00"/>
          <path d="M225.88,36.46a2.31,2.31,0,0,0-2.59-2.6h-4.73V21.11h14.29c5.55,0,8,2.48,8,7.91V50.16c0,3-.23,5.08-.23,5.08h.23c2.84-5.79,10.28-11.93,20.67-11.93,13.47,0,21,7,21,22.92v23.5a2.36,2.36,0,0,0,2.6,2.6h4.72V105H275.61c-5.55,0-7.91-2.37-7.91-8V69.3c0-7.33-2-12.29-9.57-12.29-7.91,0-14.06,5.2-16.3,12.52a27.09,27.09,0,0,0-1,7.8V105h-15Z" style="fill: #f7bb00"/>
          <path d="M319.42,43.31c17.25,0,26.7,12.64,26.7,28.58,0,1.78-.36,5.56-.36,5.56H304.19c1.18,10.63,9,16.18,18.07,16.18,9.68,0,16.89-6.73,16.89-6.73l6.26,10.39a36.64,36.64,0,0,1-24.21,9.09c-20,0-32.37-14.41-32.37-31.53C288.83,56.3,301.35,43.31,319.42,43.31Zm11.34,23.74c-.23-7.2-5.19-12.16-11.34-12.16-7.67,0-13.11,4.6-14.76,12.16Z" style="fill: #f7bb00"/>
          <path d="M380.48,43.31c7.8,0,21.85,3.19,21.85,13.58V64H389.11V60.67c0-3.3-5-4.72-8.63-4.72-10.39,0-17.83,7.91-17.83,18.78,0,12.28,9.09,18.54,18.78,18.54,10.27,0,17.83-8.15,17.83-8.15l6.26,10.4a34.43,34.43,0,0,1-25.39,10.86c-19.84,0-32.6-14-32.6-31.53C347.53,57.84,359.81,43.31,380.48,43.31Z" style="fill: #f7bb00"/>
          <path d="M409.18,36.46a2.31,2.31,0,0,0-2.6-2.6h-4.72V21.11h14.29c5.55,0,8,1.3,8,6.85V66h4.49c1.89,0,4.37-.35,5.67-2.24l12.28-19h16.66L448,67.41c-2.6,3.78-4.49,4.72-4.49,4.72v.24s2.13.82,4.26,4.72l6.85,13c.94,1.78,2.12,2.25,5,2.25h4V105h-11.1c-5.08,0-7.09-.83-9.45-5.2l-10-18.9c-1.18-2.12-3.66-2.24-5.55-2.24h-3.31V105h-15Z" style="fill: #f7bb00"/>
          <path d="M491.5,43.31c17.25,0,26.7,12.64,26.7,28.58,0,1.78-.36,5.56-.36,5.56H476.27c1.18,10.63,9,16.18,18.07,16.18,9.68,0,16.89-6.73,16.89-6.73l6.26,10.39a36.68,36.68,0,0,1-24.22,9.09c-20,0-32.36-14.41-32.36-31.53C460.91,56.3,473.43,43.31,491.5,43.31Zm11.34,23.74c-.24-7.2-5.2-12.16-11.34-12.16-7.68,0-13.11,4.6-14.76,12.16Z" style="fill: #f7bb00"/>
          <path d="M547,43.31c13.11,0,17.36,7.32,17.36,7.32h.24s-.12-1.53-.12-3.54V36.46a2.31,2.31,0,0,0-2.6-2.6h-4.72V21.11h14.29c5.55,0,8,2.48,8,8V89.73a2.37,2.37,0,0,0,2.6,2.6h4.61V105H572.88c-5.44,0-7.44-2.6-7.44-6.15V96.58h-.24s-5,9.8-18.78,9.8c-16.3,0-26.81-12.87-26.81-31.53C519.61,55.71,531.06,43.31,547,43.31Zm17.84,31.42c0-9.33-4.85-18.54-14.89-18.54-8.27,0-15.12,6.73-15.12,18.66,0,11.46,6,18.9,14.89,18.9C557.52,93.75,564.85,88.08,564.85,74.73Z" style="fill: #f7bb00"/>
          <path d="M632.52,43.31c18.42,0,33.07,13.11,33.07,31.54s-14.65,31.53-33.07,31.53-33-13-33-31.53S614.21,43.31,632.52,43.31Zm0,50.32c9.8,0,18-7.56,18-18.78s-8.15-18.78-18-18.78-17.84,7.68-17.84,18.78S622.83,93.63,632.52,93.63Z" style="fill: #ff8f1f"/>
          <path d="M671.84,60.08a2.31,2.31,0,0,0-2.6-2.59h-4.72V44.73h14.29c5.55,0,7.91,2.48,7.91,7.91V80.4c0,7.32,1.9,12.28,9.34,12.28,10.86,0,16.89-9.56,16.89-20.31V44.73h15v45a2.36,2.36,0,0,0,2.59,2.6h4.73V105H721.45c-5.2,0-7.91-2.48-7.91-6.74V96.58c0-1.42.11-2.72.11-2.72h-.23c-2.84,6.26-10.4,12.52-20.79,12.52-12.87,0-20.79-6.49-20.79-22.91Z" style="fill: #ff8f1f"/>
          <path d="M740.58,56.66h-7.8V44.73h8.15V28.31h14.65V44.73h13.7V56.66h-13.7V81c0,9.92,7.79,11.34,11.93,11.34a13.51,13.51,0,0,0,2.71-.24V105.2a27.15,27.15,0,0,1-4.6.36c-8.39,0-25-2.48-25-22.68Z" style="fill: #ff8f1f"/>
        </g>
        <g>
          <path d="M212.45,149.57h2.45v-19h-2.45v-3h8.28v3h-2.45v19h2.45v3.06h-8.28Z" style="fill: #fa7815"/>
          <path d="M224.89,138.38a.7.7,0,0,0-.79-.79h-1.45v-3H226c1.53,0,2.28.68,2.28,2v.67a7.63,7.63,0,0,1-.07,1h.07a7.32,7.32,0,0,1,6.75-4.12c4.27,0,6.19,2.31,6.19,6.89v7.79a.69.69,0,0,0,.78.78h1.46v2.95H240c-1.6,0-2.27-.67-2.27-2.27V141.9c0-2.53-.5-4.52-3.38-4.52a5.84,5.84,0,0,0-5.69,4.41,7.64,7.64,0,0,0-.31,2.42v8.42h-3.45Z" style="fill: #fa7815"/>
          <path d="M253.22,134.22c4.16,0,5.54,2.77,5.54,2.77h.07a10.28,10.28,0,0,1-.07-1.21v-4.51a.7.7,0,0,0-.78-.79h-1.46v-2.94h3.42c1.6,0,2.27.67,2.27,2.27V148.9a.7.7,0,0,0,.78.78h1.46v2.95h-3.3c-1.57,0-2.21-.71-2.21-1.92,0-.53,0-.92,0-.92h-.07a6.38,6.38,0,0,1-5.91,3.27c-4.87,0-7.92-3.84-7.92-9.42S248.45,134.22,253.22,134.22Zm5.65,9.38c0-3.2-1.67-6.4-5.12-6.4-2.81,0-5.15,2.35-5.15,6.44,0,3.91,2.09,6.43,5.08,6.43C256.35,150.07,258.87,148.19,258.87,143.6Z" style="fill: #fa7815"/>
          <path d="M275.22,134.22c5,0,7.75,3.77,7.75,8.42,0,.46-.1,1.42-.1,1.42H269.75a6,6,0,0,0,6.18,6,8.24,8.24,0,0,0,5.26-2.1l1.5,2.46a10.54,10.54,0,0,1-6.93,2.63,9.17,9.17,0,0,1-9.57-9.42C266.19,137.91,270.1,134.22,275.22,134.22Zm4.2,7.32c-.11-3-2-4.58-4.23-4.58a5.18,5.18,0,0,0-5.3,4.58Z" style="fill: #fa7815"/>
          <path d="M287.2,138.38a.7.7,0,0,0-.78-.79H285v-3h3.24c1.6,0,2.2.68,2.2,1.82,0,.53,0,1,0,1h.07a6.41,6.41,0,0,1,6-3.2c4.83,0,7.93,3.84,7.93,9.42s-3.49,9.42-8.18,9.42a6.21,6.21,0,0,1-5.51-2.88h-.07s.07.64.07,1.56v8H287.2Zm8.43,11.73c2.84,0,5.19-2.35,5.19-6.44,0-3.91-2.1-6.43-5.09-6.43-2.66,0-5.19,1.88-5.19,6.47C290.54,146.91,292.28,150.11,295.63,150.11Z" style="fill: #fa7815"/>
          <path d="M315.6,134.22c5,0,7.75,3.77,7.75,8.42,0,.46-.1,1.42-.1,1.42H310.13a6,6,0,0,0,6.18,6,8.24,8.24,0,0,0,5.26-2.1l1.5,2.46a10.54,10.54,0,0,1-6.93,2.63,9.17,9.17,0,0,1-9.57-9.42C306.57,137.91,310.48,134.22,315.6,134.22Zm4.2,7.32c-.11-3-2-4.58-4.23-4.58a5.18,5.18,0,0,0-5.3,4.58Z" style="fill: #fa7815"/>
          <path d="M327.58,138.38a.7.7,0,0,0-.78-.79h-1.46v-3h3.31c1.53,0,2.27.68,2.27,2v.67a7.63,7.63,0,0,1-.07,1h.07a7.34,7.34,0,0,1,6.76-4.12c4.26,0,6.18,2.31,6.18,6.89v7.79a.7.7,0,0,0,.79.78h1.45v2.95h-3.41c-1.6,0-2.27-.67-2.27-2.27V141.9c0-2.53-.5-4.52-3.38-4.52a5.83,5.83,0,0,0-5.69,4.41,7.35,7.35,0,0,0-.32,2.42v8.42h-3.45Z" style="fill: #fa7815"/>
          <path d="M355.91,134.22c4.16,0,5.55,2.77,5.55,2.77h.07a10.28,10.28,0,0,1-.07-1.21v-4.51a.7.7,0,0,0-.78-.79h-1.46v-2.94h3.41c1.6,0,2.28.67,2.28,2.27V148.9a.69.69,0,0,0,.78.78h1.46v2.95h-3.31c-1.56,0-2.2-.71-2.2-1.92,0-.53,0-.92,0-.92h-.07a6.36,6.36,0,0,1-5.9,3.27c-4.87,0-7.93-3.84-7.93-9.42S351.15,134.22,355.91,134.22Zm5.66,9.38c0-3.2-1.67-6.4-5.12-6.4-2.81,0-5.16,2.35-5.16,6.44,0,3.91,2.1,6.43,5.09,6.43C359,150.07,361.57,148.19,361.57,143.6Z" style="fill: #fa7815"/>
          <path d="M377.92,134.22c5.05,0,7.75,3.77,7.75,8.42,0,.46-.11,1.42-.11,1.42H372.44a6,6,0,0,0,6.19,6,8.27,8.27,0,0,0,5.26-2.1l1.49,2.46a10.51,10.51,0,0,1-6.93,2.63,9.17,9.17,0,0,1-9.56-9.42C368.89,137.91,372.8,134.22,377.92,134.22Zm4.19,7.32c-.1-3-2-4.58-4.23-4.58a5.17,5.17,0,0,0-5.29,4.58Z" style="fill: #fa7815"/>
          <path d="M389.9,138.38a.7.7,0,0,0-.79-.79h-1.45v-3H391c1.53,0,2.28.68,2.28,2v.67a7.63,7.63,0,0,1-.07,1h.07a7.32,7.32,0,0,1,6.75-4.12c4.27,0,6.19,2.31,6.19,6.89v7.79a.69.69,0,0,0,.78.78h1.46v2.95H405c-1.6,0-2.27-.67-2.27-2.27V141.9c0-2.53-.5-4.52-3.38-4.52a5.82,5.82,0,0,0-5.68,4.41,7.35,7.35,0,0,0-.32,2.42v8.42H389.9Z" style="fill: #fa7815"/>
          <path d="M411.94,137.42h-2.35v-2.78H412V129.7h3.38v4.94h4.3v2.78h-4.3v8.24c0,3.59,2.48,4.06,3.8,4.06a4.23,4.23,0,0,0,.82-.07v3a9.08,9.08,0,0,1-1.21.07c-2.28,0-6.86-.71-6.86-6.71Z" style="fill: #fa7815"/>
          <path d="M433.8,130.59h-2.31v-3h11.05a7.46,7.46,0,0,1,7.86,7.85,7.55,7.55,0,0,1-7.86,8h-5.19v9.28H433.8ZM442,140.3c2.95,0,4.77-1.89,4.77-4.91s-1.82-4.8-4.73-4.8h-4.66v9.71Z" style="fill: #fa7815"/>
          <path d="M453.85,138.38a.7.7,0,0,0-.79-.79h-1.45v-3h3.27c1.56,0,2.31.64,2.31,2.1v1.14a10.51,10.51,0,0,1-.07,1.24h.07c.85-2.63,2.91-4.69,5.69-4.69a7,7,0,0,1,.92.07v3.41a5.4,5.4,0,0,0-1-.1c-2.2,0-4.23,1.56-5,4.23a10.9,10.9,0,0,0-.43,3.23v7.36h-3.44Z" style="fill: #fa7815"/>
          <path d="M474.46,134.22a9.42,9.42,0,1,1-9.66,9.38A9.38,9.38,0,0,1,474.46,134.22Zm0,15.85a6.44,6.44,0,1,0-6.14-6.47A6.21,6.21,0,0,0,474.46,150.07Z" style="fill: #fa7815"/>
          <path d="M488.12,138.38a.7.7,0,0,0-.79-.79h-1.45v-3h3.23c1.6,0,2.2.68,2.2,1.82,0,.53,0,1,0,1h.07a6.41,6.41,0,0,1,6-3.2c4.84,0,7.93,3.84,7.93,9.42s-3.48,9.42-8.18,9.42a6.21,6.21,0,0,1-5.51-2.88h-.07s.07.64.07,1.56v8h-3.44Zm8.42,11.73c2.84,0,5.19-2.35,5.19-6.44,0-3.91-2.1-6.43-5.08-6.43-2.67,0-5.19,1.88-5.19,6.47C491.46,146.91,493.2,150.11,496.54,150.11Z" style="fill: #fa7815"/>
          <path d="M516.52,134.22c5.05,0,7.75,3.77,7.75,8.42,0,.46-.11,1.42-.11,1.42H511a6,6,0,0,0,6.19,6,8.27,8.27,0,0,0,5.26-2.1l1.49,2.46a10.51,10.51,0,0,1-6.93,2.63,9.17,9.17,0,0,1-9.56-9.42C507.49,137.91,511.4,134.22,516.52,134.22Zm4.19,7.32c-.1-3-2-4.58-4.23-4.58a5.17,5.17,0,0,0-5.29,4.58Z" style="fill: #fa7815"/>
          <path d="M528.5,138.38a.7.7,0,0,0-.79-.79h-1.45v-3h3.27c1.56,0,2.31.64,2.31,2.1v1.14a10.51,10.51,0,0,1-.07,1.24h.07c.85-2.63,2.91-4.69,5.69-4.69a7,7,0,0,1,.92.07v3.41a5.4,5.4,0,0,0-1-.1c-2.2,0-4.23,1.56-5,4.23a10.9,10.9,0,0,0-.43,3.23v7.36H528.5Z" style="fill: #fa7815"/>
          <path d="M542,137.42h-2.35v-2.78h2.42V129.7h3.38v4.94h4.3v2.78h-4.3v8.24c0,3.59,2.49,4.06,3.8,4.06a4.23,4.23,0,0,0,.82-.07v3a8.89,8.89,0,0,1-1.21.07c-2.27,0-6.86-.71-6.86-6.71Z" style="fill: #fa7815"/>
          <path d="M554.91,157.11c1.38,0,2.49-1,3.16-2.59l.82-2-6.15-14.25a1.05,1.05,0,0,0-1.14-.72h-.42v-3h2c1.46,0,2,.39,2.56,1.82l4.09,10.13a18,18,0,0,1,.64,2.17h.07a16.4,16.4,0,0,1,.6-2.17l3.74-10.13a2.32,2.32,0,0,1,2.63-1.82h2.06v3h-.46a1.05,1.05,0,0,0-1.14.72l-7.11,17.56a6.14,6.14,0,0,1-5.79,4.23,6,6,0,0,1-4.23-1.78l1.42-2.49A3.72,3.72,0,0,0,554.91,157.11Z" style="fill: #fa7815"/>
          <path d="M580.43,149.57h2.45v-19h-2.45v-3h8.28v3h-2.45v19h2.45v3.06h-8.28Z" style="fill: #fa7815"/>
          <path d="M592.87,138.38a.7.7,0,0,0-.78-.79h-1.46v-3h3.31c1.53,0,2.27.68,2.27,2v.67a7.63,7.63,0,0,1-.07,1h.07a7.35,7.35,0,0,1,6.76-4.12c4.26,0,6.18,2.31,6.18,6.89v7.79a.7.7,0,0,0,.79.78h1.45v2.95H608c-1.6,0-2.27-.67-2.27-2.27V141.9c0-2.53-.5-4.52-3.38-4.52a5.83,5.83,0,0,0-5.69,4.41,7.35,7.35,0,0,0-.32,2.42v8.42h-3.45Z" style="fill: #fa7815"/>
          <path d="M614.49,147.58a7.61,7.61,0,0,0,5.43,2.67c1.67,0,3.13-.75,3.13-2.31,0-3.24-9.81-2.88-9.81-8.67,0-3.45,3-5.05,6.68-5.05,2.17,0,5.9.74,5.9,3.48v1.71h-3.09v-.89c0-1.07-1.6-1.53-2.7-1.53-2,0-3.34.71-3.34,2.13,0,3.42,9.81,2.67,9.81,8.68,0,3.2-2.84,5.26-6.61,5.26a9.24,9.24,0,0,1-7.18-3.17Z" style="fill: #fa7815"/>
          <path d="M630.55,138.38a.7.7,0,0,0-.78-.79h-1.46v-3h3.24c1.6,0,2.2.68,2.2,1.82,0,.53,0,1,0,1h.07a6.41,6.41,0,0,1,6-3.2c4.83,0,7.93,3.84,7.93,9.42s-3.49,9.42-8.18,9.42a6.21,6.21,0,0,1-5.51-2.88h-.07s.07.64.07,1.56v8h-3.45ZM639,150.11c2.84,0,5.19-2.35,5.19-6.44,0-3.91-2.1-6.43-5.09-6.43-2.66,0-5.19,1.88-5.19,6.47C633.89,146.91,635.64,150.11,639,150.11Z" style="fill: #fa7815"/>
          <path d="M659,134.22c5,0,7.75,3.77,7.75,8.42,0,.46-.1,1.42-.1,1.42H653.48a6,6,0,0,0,6.19,6,8.27,8.27,0,0,0,5.26-2.1l1.49,2.46a10.54,10.54,0,0,1-6.93,2.63,9.17,9.17,0,0,1-9.56-9.42C649.93,137.91,653.84,134.22,659,134.22Zm4.2,7.32c-.11-3-2-4.58-4.23-4.58a5.18,5.18,0,0,0-5.3,4.58Z" style="fill: #fa7815"/>
          <path d="M678.86,134.22c2.17,0,6.47.89,6.47,3.94V140H682.2v-1c0-1.28-2-1.85-3.34-1.85A6.42,6.42,0,0,0,679,150a8.08,8.08,0,0,0,5.58-2.49l1.49,2.46a9.9,9.9,0,0,1-7.32,3.09,9.18,9.18,0,0,1-9.6-9.42C669.19,138.34,673.07,134.22,678.86,134.22Z" style="fill: #fa7815"/>
          <path d="M689.67,137.42h-2.35v-2.78h2.42V129.7h3.38v4.94h4.3v2.78h-4.3v8.24c0,3.59,2.48,4.06,3.8,4.06a4.23,4.23,0,0,0,.82-.07v3a9.08,9.08,0,0,1-1.21.07c-2.28,0-6.86-.71-6.86-6.71Z" style="fill: #fa7815"/>
          <path d="M701.86,138.38a.7.7,0,0,0-.78-.79h-1.46v-3H703c1.6,0,2.27.68,2.27,2.28v12a.7.7,0,0,0,.79.78h1.45v2.95h-3.38c-1.59,0-2.27-.67-2.27-2.27Zm.07-10.84H705v3.59h-3.09Z" style="fill: #fa7815"/>
          <path d="M719,134.22a9.42,9.42,0,1,1-9.67,9.38A9.37,9.37,0,0,1,719,134.22Zm0,15.85a6.44,6.44,0,1,0-6.15-6.47A6.22,6.22,0,0,0,719,150.07Z" style="fill: #fa7815"/>
          <path d="M732.68,138.38a.7.7,0,0,0-.78-.79h-1.46v-3h3.31c1.52,0,2.27.68,2.27,2v.67a7.63,7.63,0,0,1-.07,1H736a7.32,7.32,0,0,1,6.75-4.12c4.27,0,6.19,2.31,6.19,6.89v7.79a.69.69,0,0,0,.78.78h1.46v2.95h-3.41c-1.6,0-2.28-.67-2.28-2.27V141.9c0-2.53-.5-4.52-3.38-4.52a5.82,5.82,0,0,0-5.68,4.41,7.35,7.35,0,0,0-.32,2.42v8.42h-3.45Z" style="fill: #fa7815"/>
          <path d="M764.42,130.59h-2.31v-3h11.06a7.46,7.46,0,0,1,7.85,7.85,7.55,7.55,0,0,1-7.85,8H768v9.28h-3.56Zm8.18,9.71c2.95,0,4.76-1.89,4.76-4.91s-1.81-4.8-4.73-4.8H768v9.71Z" style="fill: #fa7815"/>
          <path d="M784.4,131.27a.7.7,0,0,0-.78-.79h-1.46v-2.94h3.41c1.6,0,2.28.67,2.28,2.27V148.9a.69.69,0,0,0,.78.78h1.46v2.95h-3.41c-1.6,0-2.28-.67-2.28-2.27Z" style="fill: #fa7815"/>
          <path d="M802.78,141.43h.78v-.17c0-3.17-1.17-4.3-4-4.3-.85,0-3,.21-3,1.38v1h-3.24v-1.78c0-3,4.48-3.37,6.23-3.37,5.82,0,7.39,3.06,7.39,7v7.64a.69.69,0,0,0,.78.78h1.46v2.95H806c-1.6,0-2.24-.78-2.24-2.06a7.09,7.09,0,0,1,.08-1.07h-.08a6.14,6.14,0,0,1-5.72,3.56c-3.09,0-6.11-1.89-6.11-5.48C791.94,141.79,799.76,141.43,802.78,141.43Zm-4,8.86c2.91,0,4.8-3.06,4.8-5.73V144h-.89c-2.6,0-7.29.14-7.29,3.45C795.42,148.86,796.52,150.29,798.8,150.29Z" style="fill: #fa7815"/>
          <path d="M812.77,137.42h-2.35v-2.78h2.42V129.7h3.38v4.94h4.3v2.78h-4.3v8.24c0,3.59,2.48,4.06,3.8,4.06a4.23,4.23,0,0,0,.82-.07v3a8.89,8.89,0,0,1-1.21.07c-2.28,0-6.86-.71-6.86-6.71Z" style="fill: #fa7815"/>
          <path d="M824.78,137.42h-2.24v-2.78h2.24V134c0-5.94,4.52-6.68,6.79-6.68a8,8,0,0,1,1.32.1v3a5.14,5.14,0,0,0-.89-.07c-1.35,0-3.77.43-3.77,3.77v.53h4.27v2.78h-4.27v15.21h-3.45Z" style="fill: #fa7815"/>
          <path d="M843.12,134.22a9.42,9.42,0,1,1-9.66,9.38A9.38,9.38,0,0,1,843.12,134.22Zm0,15.85A6.44,6.44,0,1,0,837,143.6,6.21,6.21,0,0,0,843.12,150.07Z" style="fill: #fa7815"/>
          <path d="M856.78,138.38a.7.7,0,0,0-.79-.79h-1.45v-3h3.27c1.56,0,2.31.64,2.31,2.1v1.14a10.51,10.51,0,0,1-.07,1.24h.07c.85-2.63,2.91-4.69,5.68-4.69a7.06,7.06,0,0,1,.93.07v3.41a5.4,5.4,0,0,0-1-.1c-2.21,0-4.23,1.56-5.05,4.23a10.9,10.9,0,0,0-.43,3.23v7.36h-3.44Z" style="fill: #fa7815"/>
          <path d="M870.42,138.38a.7.7,0,0,0-.78-.79h-1.45v-3h3.3c1.57,0,2.28.68,2.28,2v.67c0,.57,0,1,0,1h.07a7,7,0,0,1,6.15-4.12c3.06,0,4.8,1.38,5.4,4.09h.08a7.23,7.23,0,0,1,6.39-4.09c4.06,0,5.94,2.31,5.94,6.89v7.79a.69.69,0,0,0,.78.78H900v2.95h-3.41c-1.6,0-2.28-.67-2.28-2.27v-8.5c0-2.52-.5-4.51-3.16-4.51-2.49,0-4.41,2.16-5,4.62a10.19,10.19,0,0,0-.28,2.45v8.21h-3.45V141.86c0-2.35-.36-4.51-3.09-4.51s-4.48,2.2-5.16,4.76a9.46,9.46,0,0,0-.25,2.31v8.21h-3.45Z" style="fill: #fa7815"/>
        </g>
      </g>
    </g>
  </g>
</svg>
