<svg xmlns="http://www.w3.org/2000/svg" xmlns:xlink="http://www.w3.org/1999/xlink" width="815.64" height="177.74" viewBox="0 0 815.64 177.74">
  <defs>
    <linearGradient id="linear-gradient" x1="49.76" y1="136.87" x2="136.88" y2="49.75" gradientUnits="userSpaceOnUse">
      <stop offset="0" stop-color="#f15a24"/>
      <stop offset="1" stop-color="#fbb03b"/>
    </linearGradient>
  </defs>
  <g id="Layer_2" data-name="Layer 2">
    <g id="Layer_1-2" data-name="Layer 1">
      <g>
        <path d="M179,153.53l-63-63a61.59,61.59,0,1,0-22.63,23.84l62.36,62.35a3.3,3.3,0,0,0,4.7,0L179,158.23A3.34,3.34,0,0,0,179,153.53ZM103.73,61.2H92.45a1,1,0,0,0-1,1V90.09a1,1,0,0,1-1,1h-19a1,1,0,0,1-1-1v-16a1,1,0,0,0-1-1h-16a1,1,0,0,0-1,1v16a1,1,0,0,1-1,1h-19a1,1,0,0,1-1-1V62.17a1,1,0,0,0-1-1H19.5a1,1,0,0,1-.63-1.73L61,24.37a1,1,0,0,1,1.25,0L76.54,36.3v-4a1,1,0,0,1,1-1h13a1,1,0,0,1,1,1v16a1,1,0,0,0,.35.75l12.51,10.43A1,1,0,0,1,103.73,61.2Z" style="fill: url(#linear-gradient)"/>
        <g>
          <path d="M199.66,45.58c8.38,0,23.49,3.43,23.49,14.61V67.8H208.92V64.25c0-3.56-5.33-5.08-9.26-5.08-11.18,0-19.18,8.51-19.18,20.19,0,13.2,9.78,19.93,20.19,19.93,11.05,0,19.17-8.76,19.17-8.76l6.73,11.17a37,37,0,0,1-27.29,11.68c-21.33,0-35.05-15.1-35.05-33.9C164.23,61.2,177.44,45.58,199.66,45.58Z" style="fill: #f7bb00"/>
          <path d="M230.5,38.22a2.48,2.48,0,0,0-2.79-2.79h-5.08V21.72H238c6,0,8.63,2.66,8.63,8.5V53c0,3.17-.25,5.46-.25,5.46h.25c3.05-6.22,11.05-12.83,22.22-12.83,14.47,0,22.6,7.5,22.6,24.64V95.48a2.54,2.54,0,0,0,2.79,2.8h5.08v13.58H284c-6,0-8.51-2.54-8.51-8.63V73.52c0-7.87-2.16-13.21-10.28-13.21-8.51,0-15.11,5.59-17.52,13.46a28.88,28.88,0,0,0-1,8.38v29.71H230.5Z" style="fill: #f7bb00"/>
          <path d="M331.06,45.58c18.53,0,28.69,13.59,28.69,30.73,0,1.9-.38,6-.38,6H314.68C316,93.7,324.33,99.67,334.1,99.67c10.41,0,18.16-7.24,18.16-7.24L359,103.61a39.39,39.39,0,0,1-26,9.77c-21.46,0-34.79-15.49-34.79-33.9C298.17,59.55,311.63,45.58,331.06,45.58ZM343.24,71.1C343,63.36,337.66,58,331.06,58,322.8,58,317,63,315.18,71.1Z" style="fill: #f7bb00"/>
          <path d="M396.69,45.58c8.38,0,23.49,3.43,23.49,14.61V67.8H406V64.25c0-3.56-5.33-5.08-9.27-5.08-11.17,0-19.17,8.51-19.17,20.19,0,13.2,9.78,19.93,20.19,19.93,11,0,19.17-8.76,19.17-8.76l6.73,11.17a37,37,0,0,1-27.3,11.68c-21.33,0-35-15.1-35-33.9C361.27,61.2,374.47,45.58,396.69,45.58Z" style="fill: #f7bb00"/>
          <path d="M427.54,38.22a2.48,2.48,0,0,0-2.79-2.79h-5.08V21.72H435c6,0,8.64,1.39,8.64,7.36V70h4.82c2,0,4.7-.38,6.1-2.41l13.2-20.44h17.9L469.31,71.49c-2.79,4.06-4.82,5.07-4.82,5.07v.26s2.28.89,4.57,5.08l7.36,14c1,1.91,2.29,2.42,5.34,2.42h4.31v13.58H474.14c-5.46,0-7.62-.89-10.16-5.59L453.19,86c-1.27-2.29-3.94-2.41-6-2.41h-3.55v28.31H427.54Z" style="fill: #f7bb00"/>
          <path d="M516,45.58c18.54,0,28.69,13.59,28.69,30.73,0,1.9-.38,6-.38,6H499.65c1.27,11.42,9.65,17.39,19.43,17.39,10.41,0,18.15-7.24,18.15-7.24L544,103.61a39.39,39.39,0,0,1-26,9.77c-21.45,0-34.78-15.49-34.78-33.9C483.15,59.55,496.61,45.58,516,45.58ZM528.22,71.1C528,63.36,522.63,58,516,58c-8.25,0-14.09,4.95-15.87,13.07Z" style="fill: #f7bb00"/>
          <path d="M575.7,45.58c14.09,0,18.66,7.88,18.66,7.88h.26s-.13-1.65-.13-3.81V38.22a2.49,2.49,0,0,0-2.79-2.79h-5.08V21.72H602c6,0,8.63,2.66,8.63,8.63V95.48a2.55,2.55,0,0,0,2.8,2.8h5v13.58H603.5c-5.84,0-8-2.79-8-6.6v-2.41h-.26s-5.33,10.53-20.19,10.53c-17.52,0-28.82-13.84-28.82-33.9C546.24,58.92,558.56,45.58,575.7,45.58Zm19.17,33.78c0-10-5.2-19.94-16-19.94-8.88,0-16.25,7.24-16.25,20.06,0,12.32,6.48,20.32,16,20.32C587,99.8,594.87,93.7,594.87,79.36Z" style="fill: #f7bb00"/>
          <path d="M667.61,45.58c19.81,0,35.56,14.1,35.56,33.9s-15.75,33.9-35.56,33.9-35.42-14-35.42-33.9S647.94,45.58,667.61,45.58Zm0,54.09c10.54,0,19.3-8.12,19.3-20.19s-8.76-20.18-19.3-20.18-19.17,8.25-19.17,20.18S657.2,99.67,667.61,99.67Z" style="fill: #ff8f1f"/>
          <path d="M709.89,63.61a2.49,2.49,0,0,0-2.79-2.79H702V47.11h15.36c6,0,8.51,2.66,8.51,8.51V85.45c0,7.87,2,13.21,10,13.21,11.68,0,18.15-10.29,18.15-21.84V47.11H770.2V95.48a2.54,2.54,0,0,0,2.79,2.8h5.08v13.58H763.21c-5.58,0-8.5-2.67-8.5-7.24v-1.77c0-1.53.12-2.92.12-2.92h-.25c-3.05,6.72-11.17,13.45-22.35,13.45-13.84,0-22.34-7-22.34-24.63Z" style="fill: #ff8f1f"/>
          <path d="M783.78,59.93H775.4V47.11h8.76V29.46H799.9V47.11h14.73V59.93H799.9V86.09c0,10.66,8.38,12.19,12.82,12.19a14.46,14.46,0,0,0,2.92-.26v14.09a29,29,0,0,1-4.95.39c-9,0-26.91-2.67-26.91-24.38Z" style="fill: #ff8f1f"/>
        </g>
      </g>
    </g>
  </g>
</svg>
