<svg xmlns="http://www.w3.org/2000/svg" xmlns:xlink="http://www.w3.org/1999/xlink" width="415.86" height="410.83" viewBox="0 0 415.86 410.83">
  <defs>
    <linearGradient id="linear-gradient" x1="115.02" y1="316.37" x2="316.39" y2="115" gradientUnits="userSpaceOnUse">
      <stop offset="0" stop-color="#f15a24"/>
      <stop offset="1" stop-color="#fbb03b"/>
    </linearGradient>
  </defs>
  <g id="Layer_2" data-name="Layer 2">
    <g id="Layer_1-2" data-name="Layer 1">
      <path d="M413.62,354.86,268.09,209.35a142.4,142.4,0,1,0-52.31,55.09L359.91,408.57a7.67,7.67,0,0,0,10.87,0l42.84-42.84A7.71,7.71,0,0,0,413.62,354.86ZM239.75,141.45H213.69a2.24,2.24,0,0,0-2.24,2.24v64.54a2.25,2.25,0,0,1-2.27,2.25H165.36a2.25,2.25,0,0,1-2.24-2.25V171.3a2.25,2.25,0,0,0-2.27-2.25H123.94a2.24,2.24,0,0,0-2.24,2.25v36.93a2.26,2.26,0,0,1-2.27,2.25H75.61a2.24,2.24,0,0,1-2.24-2.25V143.69a2.24,2.24,0,0,0-2.24-2.24H45.07a2.26,2.26,0,0,1-1.45-4L141,56.33a2.28,2.28,0,0,1,2.89,0l33.07,27.58V74.66a2.27,2.27,0,0,1,2.27-2.27h30a2.26,2.26,0,0,1,2.27,2.27v37a2.24,2.24,0,0,0,.8,1.73l28.92,24.1A2.26,2.26,0,0,1,239.75,141.45Z" style="fill: url(#linear-gradient)"/>
    </g>
  </g>
</svg>
